<mxfile host="app.diagrams.net" modified="2022-04-15T01:11:14.862Z" agent="5.0 (Macintosh; Intel Mac OS X 10_15_7) AppleWebKit/537.36 (KHTML, like Gecko) Chrome/100.0.4896.75 Safari/537.36" etag="SpH28FgxDpOU7pSANb2u" version="17.4.2" type="github">
  <diagram id="3228e29e-7158-1315-38df-8450db1d8a1d" name="Page-1">
    <mxGraphModel dx="621" dy="-651" grid="0" gridSize="10" guides="1" tooltips="1" connect="1" arrows="1" fold="1" page="1" pageScale="1" pageWidth="400" pageHeight="150" background="#EFF1F3" math="0" shadow="0">
      <root>
        <mxCell id="0" />
        <mxCell id="1" parent="0" />
        <mxCell id="i7mL7RvrMvwTbX-JpwGI-8" value="&lt;span style=&quot;font-size: 11px&quot;&gt;已提交，都可读&lt;/span&gt;" style="rounded=1;whiteSpace=wrap;html=1;fillColor=#9AC7BF;" parent="1" vertex="1">
          <mxGeometry x="58" y="1400" width="95" height="30" as="geometry" />
        </mxCell>
        <mxCell id="i7mL7RvrMvwTbX-JpwGI-9" value="" style="rounded=1;whiteSpace=wrap;html=1;fillColor=#9AC7BF;" parent="1" vertex="1">
          <mxGeometry x="153" y="1400" width="95" height="30" as="geometry" />
        </mxCell>
        <mxCell id="cxSt4ejn95i3qK7ZExYu-3" value="不可读" style="rounded=1;whiteSpace=wrap;html=1;fillColor=#535E80;fontColor=#FFFFFF;" parent="1" vertex="1">
          <mxGeometry x="248" y="1400" width="95" height="30" as="geometry" />
        </mxCell>
        <mxCell id="cxSt4ejn95i3qK7ZExYu-8" value="" style="shape=flexArrow;endArrow=classic;html=1;rounded=0;strokeColor=none;fillColor=#9AC7BF;endWidth=7.212325469427058;endSize=2.664676616915423;width=4.278606965174129;" parent="1" edge="1">
          <mxGeometry width="50" height="50" relative="1" as="geometry">
            <mxPoint x="152.43" y="1473" as="sourcePoint" />
            <mxPoint x="152.43" y="1430" as="targetPoint" />
          </mxGeometry>
        </mxCell>
        <mxCell id="cxSt4ejn95i3qK7ZExYu-10" value="min_trx_id" style="text;html=1;strokeColor=none;fillColor=none;align=center;verticalAlign=middle;whiteSpace=wrap;rounded=0;" parent="1" vertex="1">
          <mxGeometry x="122" y="1467" width="60" height="30" as="geometry" />
        </mxCell>
        <mxCell id="CTI4dgRi8EmnFpc28GfV-1" value="" style="shape=flexArrow;endArrow=classic;html=1;rounded=0;strokeColor=none;fillColor=#535E80;endWidth=7.212325469427058;endSize=2.664676616915423;width=4.278606965174129;fontColor=#535E80;" parent="1" edge="1">
          <mxGeometry width="50" height="50" relative="1" as="geometry">
            <mxPoint x="248" y="1473" as="sourcePoint" />
            <mxPoint x="248" y="1430" as="targetPoint" />
          </mxGeometry>
        </mxCell>
        <mxCell id="CTI4dgRi8EmnFpc28GfV-2" value="&lt;font style=&quot;font-size: 11px&quot;&gt;max_trx_id&lt;/font&gt;" style="text;html=1;strokeColor=none;fillColor=none;align=center;verticalAlign=middle;whiteSpace=wrap;rounded=0;" parent="1" vertex="1">
          <mxGeometry x="220" y="1467" width="60" height="30" as="geometry" />
        </mxCell>
        <mxCell id="CTI4dgRi8EmnFpc28GfV-4" value="&lt;font color=&quot;#ffffff&quot;&gt;m_ids&lt;/font&gt;" style="rounded=1;whiteSpace=wrap;html=1;fillColor=#535E80;" parent="1" vertex="1">
          <mxGeometry x="153" y="1400" width="39" height="30" as="geometry" />
        </mxCell>
        <mxCell id="CTI4dgRi8EmnFpc28GfV-5" value="m_ids都是活跃事务" style="text;html=1;strokeColor=none;fillColor=none;align=center;verticalAlign=middle;whiteSpace=wrap;rounded=0;fontSize=11;" parent="1" vertex="1">
          <mxGeometry x="146" y="1370" width="110" height="27" as="geometry" />
        </mxCell>
      </root>
    </mxGraphModel>
  </diagram>
</mxfile>
